<svg width="20" height="20" viewBox="0 0 20 20" fill="none" xmlns="http://www.w3.org/2000/svg">
<path d="M9.1665 1.66635C9.38642 1.66635 9.604 1.67788 9.81917 1.69646C9.53517 2.1952 9.33484 2.74761 9.2365 3.33465C9.21317 3.33437 9.18984 3.33302 9.1665 3.33302C5.9437 3.33302 3.33335 5.94359 3.33317 9.1664C3.33317 12.3893 5.94359 14.9997 9.1665 14.9997C10.7462 14.9997 12.1788 14.3723 13.229 13.3534L13.3535 13.2289C14.3723 12.1787 14.9998 10.7459 14.9998 9.1664C14.9998 9.14281 14.9977 9.11906 14.9974 9.09556C15.5847 8.99731 16.1367 8.7969 16.6356 8.5129C16.6542 8.72823 16.6665 8.94623 16.6665 9.1664C16.6665 10.9362 16.0525 12.5641 15.0258 13.8474L18.5944 17.4159L17.416 18.5943L13.8475 15.0257C12.5643 16.0525 10.9365 16.6664 9.1665 16.6664C5.0265 16.6664 1.6665 13.3064 1.6665 9.1664C1.66668 5.0265 5.02661 1.66635 9.1665 1.66635ZM13.7743 1.09913C13.9214 0.744306 14.4117 0.744296 14.5588 1.09913L14.7695 1.60857C15.1295 2.47756 15.8012 3.1715 16.6453 3.54705L17.2435 3.81316C17.5853 3.96551 17.5853 4.46318 17.2435 4.61557L16.6103 4.89715C15.7873 5.26321 15.1277 5.93257 14.7614 6.77296L14.5555 7.24416C14.4052 7.58927 13.9279 7.58927 13.7775 7.24416L13.5724 6.77296C13.2062 5.93244 12.5458 5.26325 11.7227 4.89715L11.0895 4.61557C10.7477 4.46319 10.7477 3.9655 11.0895 3.81316L11.6877 3.54705C12.5319 3.1715 13.2036 2.47758 13.5635 1.60857L13.7743 1.09913Z" fill="black"/>
</svg>
