<svg width="20" height="20" viewBox="0 0 20 20" fill="none" xmlns="http://www.w3.org/2000/svg">
<path d="M12.8805 8.06267L12.762 7.94428C12.2218 7.42344 11.5458 7.02822 10.7696 6.82024C8.34737 6.1712 6.02122 7.54408 5.35992 10.0121C5.32422 10.1453 5.30482 10.2949 5.27379 10.6711C5.14523 12.2295 4.77878 13.3916 3.77387 14.5703C5.6571 15.3107 7.88814 15.8323 9.58471 15.8323C11.6419 15.8323 13.4704 14.4496 14.0105 12.4336C14.4422 10.8226 13.9595 9.18189 12.8805 8.06267ZM11.0739 5.17765L15.1899 1.97632C15.5216 1.71831 15.9935 1.74769 16.2907 2.04487L18.7859 4.54003C19.0831 4.83721 19.1125 5.30916 18.8545 5.6409L15.654 9.75581C15.8982 10.7461 15.903 11.8102 15.6204 12.8651C14.872 15.6582 12.3452 17.499 9.58471 17.499C6.66671 17.499 2.91671 16.2474 0.833374 14.9974C4.14986 12.4974 3.37272 10.9889 3.75004 9.58073C4.63207 6.28896 7.78524 4.36627 11.0739 5.17765ZM13.918 6.74315C13.9728 6.79602 14.0266 6.84984 14.0794 6.90458L15.0248 7.85001L17.0872 5.19836L15.6325 3.74356L12.9808 5.80596L13.918 6.74315Z" fill="#27272A"/>
</svg>
