<svg width="18" height="18" viewBox="0 0 18 18" fill="none" xmlns="http://www.w3.org/2000/svg">
<path d="M7.82391 13.7376L8.5426 12.0914C9.18227 10.6265 10.3335 9.46033 11.7696 8.82287L13.7479 7.94474C14.3768 7.66557 14.3768 6.75056 13.7479 6.47138L11.8313 5.62065C10.3583 4.96681 9.18644 3.75749 8.55775 2.24258L7.82973 0.488263C7.55956 -0.162755 6.66005 -0.162754 6.38989 0.488263L5.66184 2.24256C5.03315 3.75749 3.86123 4.96681 2.38824 5.62065L0.471729 6.47138C-0.157243 6.75056 -0.157243 7.66557 0.471729 7.94474L2.45003 8.82287C3.88609 9.46033 5.03736 10.6265 5.67697 12.0914L6.3957 13.7376C6.67198 14.3703 7.54761 14.3703 7.82391 13.7376ZM15.0198 17.7457L15.2219 17.2824C15.5823 16.4564 16.2313 15.7987 17.041 15.439L17.6637 15.1623C18.0006 15.0127 18.0006 14.5232 17.6637 14.3736L17.0759 14.1123C16.2453 13.7433 15.5846 13.0613 15.2305 12.2073L15.0229 11.7066C14.8782 11.3578 14.3959 11.3578 14.2512 11.7066L14.0437 12.2073C13.6896 13.0613 13.0289 13.7433 12.1983 14.1123L11.6104 14.3736C11.2736 14.5232 11.2736 15.0127 11.6104 15.1623L12.2331 15.439C13.0429 15.7987 13.6919 16.4564 14.0522 17.2824L14.2544 17.7457C14.4023 18.0848 14.8718 18.0848 15.0198 17.7457Z" fill="#FAFAFA"/>
</svg>
