<svg width="15" height="15" viewBox="0 0 15 15" fill="none" xmlns="http://www.w3.org/2000/svg">
<path d="M11.7857 12.9644H2.35718V11.7858C2.35718 11.0043 2.6676 10.2549 3.22017 9.70234C3.77273 9.14978 4.52216 8.83936 5.30361 8.83936H8.83932C9.62076 8.83936 10.3702 9.14978 10.9228 9.70234C11.4753 10.2549 11.7857 11.0043 11.7857 11.7858V12.9644ZM7.07146 7.66078C6.60715 7.66078 6.14738 7.56933 5.7184 7.39164C5.28943 7.21396 4.89966 6.95352 4.57134 6.6252C4.24301 6.29688 3.98258 5.9071 3.80489 5.47813C3.6272 5.04916 3.53575 4.58939 3.53575 4.12507C3.53575 3.66075 3.6272 3.20098 3.80489 2.77201C3.98258 2.34304 4.24301 1.95326 4.57134 1.62494C4.89966 1.29662 5.28943 1.03618 5.7184 0.858496C6.14738 0.680809 6.60715 0.589355 7.07146 0.589355C8.00919 0.589355 8.90852 0.961867 9.57159 1.62494C10.2347 2.28802 10.6072 3.18734 10.6072 4.12507C10.6072 5.0628 10.2347 5.96212 9.57159 6.6252C8.90852 7.28827 8.00919 7.66078 7.07146 7.66078Z" fill="#9F9FA9"/>
</svg>
