<svg width="19" height="19" viewBox="0 0 19 19" fill="none" xmlns="http://www.w3.org/2000/svg">
<g clip-path="url(#clip0_1401_22552)">
<path d="M3.82221 16.625L3.80637 16.6408L3.78975 16.625H2.36871C2.16035 16.6248 1.9606 16.5419 1.81334 16.3945C1.66609 16.2471 1.58337 16.0472 1.58337 15.8389V3.16113C1.58482 2.95322 1.668 2.75422 1.81495 2.60713C1.96189 2.46004 2.1608 2.37666 2.36871 2.375H16.6314C17.0652 2.375 17.4167 2.72729 17.4167 3.16113V15.8389C17.4153 16.0468 17.3321 16.2458 17.1851 16.3929C17.0382 16.54 16.8393 16.6233 16.6314 16.625H3.82221ZM15.8334 11.875V3.95833H3.16671V15.0417L11.0834 7.125L15.8334 11.875ZM15.8334 14.1138L11.0834 9.36383L5.40554 15.0417H15.8334V14.1138ZM6.33337 8.70833C5.91345 8.70833 5.51072 8.54152 5.21379 8.24459C4.91686 7.94765 4.75004 7.54493 4.75004 7.125C4.75004 6.70507 4.91686 6.30235 5.21379 6.00541C5.51072 5.70848 5.91345 5.54167 6.33337 5.54167C6.7533 5.54167 7.15603 5.70848 7.45296 6.00541C7.74989 6.30235 7.91671 6.70507 7.91671 7.125C7.91671 7.54493 7.74989 7.94765 7.45296 8.24459C7.15603 8.54152 6.7533 8.70833 6.33337 8.70833Z" fill="#9F9FA9"/>
</g>
<defs>
<clipPath id="clip0_1401_22552">
<rect width="19" height="19" fill="white"/>
</clipPath>
</defs>
</svg>
