<svg width="15" height="15" viewBox="0 0 15 15" fill="none" xmlns="http://www.w3.org/2000/svg">
<g clip-path="url(#clip0_1401_22574)">
<path d="M1.39054 4.24631L7.11966 0.811439C7.21595 0.753664 7.32614 0.723145 7.43843 0.723145C7.55072 0.723145 7.66091 0.753664 7.7572 0.811439L13.4807 4.24693C13.5267 4.27445 13.5647 4.31339 13.5911 4.35998C13.6174 4.40656 13.6313 4.45918 13.6313 4.51272V12.3911C13.6313 12.5554 13.566 12.713 13.4498 12.8292C13.3336 12.9454 13.176 13.0107 13.0117 13.0107H1.85956C1.69524 13.0107 1.53765 12.9454 1.42146 12.8292C1.30527 12.713 1.23999 12.5554 1.23999 12.3911V4.5121C1.23998 4.45857 1.25384 4.40594 1.28023 4.35936C1.30661 4.31278 1.34462 4.27383 1.39054 4.24631ZM2.47912 5.03873V11.7715H12.3922V5.03811L7.43812 2.0642L2.47912 5.03811V5.03873ZM7.47282 8.48661L10.754 5.72149L11.552 6.66943L7.48149 10.1L3.32421 6.67377L4.11229 5.71716L7.47282 8.48661Z" fill="#9F9FA9"/>
</g>
<defs>
<clipPath id="clip0_1401_22574">
<rect width="14.8696" height="14.8696" fill="white"/>
</clipPath>
</defs>
</svg>
