<svg width="20" height="20" viewBox="0 0 20 20" fill="none" xmlns="http://www.w3.org/2000/svg">
<path d="M3.92783 5.94009L3.72235 6.41149C3.57197 6.7566 3.09464 6.7566 2.94427 6.41149L2.7388 5.94009C2.37255 5.09956 1.71287 4.43034 0.889725 4.06423L0.256706 3.78268C-0.0855685 3.63044 -0.0855685 3.13234 0.256706 2.9801L0.854333 2.71428C1.69865 2.33876 2.37014 1.64477 2.7301 0.77569L2.9411 0.266278C3.08815 -0.0887594 3.57847 -0.0887594 3.72552 0.266278L3.93652 0.77569C4.29647 1.64477 4.96798 2.33876 5.81233 2.71428L6.4099 2.9801C6.75226 3.13234 6.75226 3.63044 6.4099 3.78268L5.7769 4.06423C4.95376 4.43034 4.29407 5.09956 3.92783 5.94009ZM12.762 7.94404L12.8804 8.06243C13.9594 9.18167 14.4422 10.8223 14.0105 12.4334C13.4703 14.4494 11.6418 15.832 9.58467 15.832C7.8881 15.832 5.65706 15.3105 3.77383 14.5701C4.77874 13.3913 5.14519 12.2292 5.27375 10.6708C5.30478 10.2947 5.32417 10.1451 5.35987 10.0118C6.02117 7.54384 8.34733 6.17096 10.7696 6.81999C11.5457 7.02797 12.2217 7.42319 12.762 7.94404ZM15.1898 1.97608L11.0738 5.17741C7.7852 4.36602 4.63202 6.28872 3.75 9.5805C3.66522 9.89692 3.63872 10.2183 3.61097 10.555C3.51524 11.7166 3.40462 13.0589 0.833333 14.9972C2.91667 16.2472 6.66667 17.4987 9.58467 17.4987C12.3452 17.4987 14.8719 15.658 15.6203 12.8648C15.903 11.8099 15.8982 10.7458 15.6539 9.75558L18.8544 5.64066C19.1124 5.30892 19.0831 4.83696 18.7858 4.53978L16.2907 2.04462C15.9935 1.74745 15.5216 1.71807 15.1898 1.97608ZM14.0793 6.90433C14.0266 6.8496 13.9727 6.79578 13.9179 6.74291L12.9807 5.80571L15.6324 3.74332L17.0872 5.19812L15.0247 7.84977L14.0793 6.90433Z" fill="#9F9FA9"/>
</svg>
