<svg width="20" height="20" viewBox="0 0 20 20" fill="none" xmlns="http://www.w3.org/2000/svg">
<path d="M12.5 6.6665V3.33317H4.16667V16.6665H15.8333V6.6665H12.5ZM2.5 2.493C2.5 2.03655 2.87291 1.6665 3.33208 1.6665H13.3333L17.4998 5.83317L17.5 17.4936C17.5 17.9573 17.1292 18.3332 16.6722 18.3332H3.32783C2.87063 18.3332 2.5 17.9538 2.5 17.5067V2.493ZM9.16667 7.9165C9.16667 8.60684 8.607 9.1665 7.91667 9.1665C7.22631 9.1665 6.66667 8.60684 6.66667 7.9165C6.66667 7.22615 7.22631 6.6665 7.91667 6.6665C8.607 6.6665 9.16667 7.22615 9.16667 7.9165ZM14.5833 14.1665L11.25 8.33317L6.66667 14.1665H14.5833Z" fill="#9F9FA9"/>
</svg>
