<svg width="24" height="24" viewBox="0 0 24 24" fill="none" xmlns="http://www.w3.org/2000/svg">
<path d="M3.52512 3.5254C4.89197 2.15872 7.10756 2.15861 8.47434 3.5254L8.64622 3.6963C8.84149 3.89145 9.15802 3.89152 9.35325 3.6963L9.52512 3.5254C10.8077 2.24294 12.8371 2.16412 14.2126 3.28809L12.947 4.83594C12.3587 4.35525 11.4883 4.39054 10.9392 4.93946L10.7673 5.11133C9.79111 6.08721 8.2084 6.08713 7.23216 5.11133L7.06028 4.93946C6.47455 4.35373 5.52499 4.35383 4.93919 4.93946C4.3534 5.52525 4.3534 6.47477 4.93919 7.06055L5.11106 7.23243C6.08681 8.20862 6.08678 9.79137 5.11106 10.7676L4.93919 10.9395C4.3534 11.5252 4.3534 12.4748 4.93919 13.0606L5.11106 13.2324C6.08681 14.2086 6.08678 15.7914 5.11106 16.7676L4.93919 16.9395C4.3534 17.5252 4.3534 18.4748 4.93919 19.0606C5.52498 19.6462 6.47453 19.6463 7.06028 19.0606L7.23216 18.8887C8.2084 17.9129 9.79113 17.9128 10.7673 18.8887L10.9392 19.0606C11.525 19.6462 12.4745 19.6463 13.0603 19.0606L13.2321 18.8887C14.2084 17.9129 15.7911 17.9128 16.7673 18.8887L16.9392 19.0606C17.525 19.6462 18.4745 19.6463 19.0603 19.0606C19.6459 18.4748 19.6459 17.5252 19.0603 16.9395L18.8884 16.7676C17.9125 15.7914 17.9125 14.2087 18.8884 13.2324L19.0603 13.0606C19.6092 12.5115 19.6444 11.641 19.1638 11.0527L20.7116 9.78712C21.8355 11.1626 21.7568 13.192 20.4743 14.4746L20.3034 14.6465C20.1082 14.8418 20.1082 15.1583 20.3034 15.3535L20.4743 15.5254C21.841 16.8922 21.841 19.1078 20.4743 20.4746C19.1075 21.8414 16.892 21.8413 15.5251 20.4746L15.3532 20.3037C15.158 20.1085 14.8415 20.1086 14.6462 20.3037L14.4743 20.4746C13.1075 21.8414 10.892 21.8413 9.52512 20.4746L9.35325 20.3037C9.15804 20.1085 8.84149 20.1086 8.64622 20.3037L8.47434 20.4746C7.10754 21.8414 4.89197 21.8413 3.52512 20.4746C2.15829 19.1078 2.15829 16.8922 3.52512 15.5254L3.69602 15.3535C3.89109 15.1583 3.89112 14.8417 3.69602 14.6465L3.52512 14.4746C2.15829 13.1078 2.15829 10.8922 3.52512 9.5254L3.69602 9.35352C3.89109 9.15828 3.89112 8.84171 3.69602 8.64649L3.52512 8.47462C2.15829 7.10778 2.15829 4.89223 3.52512 3.5254ZM14.4997 7.50001C15.6042 7.50015 16.4997 8.39555 16.4997 9.50001V14.5C16.4997 15.6045 15.6042 16.4999 14.4997 16.5H9.49973C8.39516 16.5 7.49973 15.6046 7.49973 14.5V9.50001C7.49976 8.39546 8.39518 7.50001 9.49973 7.50001H14.4997ZM9.49973 14.5H14.4997V9.50001H9.49973V14.5ZM18.529 1.31934C18.7057 0.893621 19.294 0.893485 19.4704 1.31934L19.7234 1.93067C20.1553 2.97354 20.9612 3.8062 21.9743 4.25684L22.6911 4.57618C23.1019 4.75887 23.1019 5.35638 22.6911 5.53907L21.9314 5.87696C20.9437 6.3163 20.1521 7.11944 19.7126 8.12794L19.4665 8.69337C19.2861 9.1075 18.7134 9.1075 18.5329 8.69337L18.2859 8.12794C17.8463 7.11943 17.0548 6.31625 16.0671 5.87696L15.3073 5.53907C14.8969 5.35629 14.8968 4.7589 15.3073 4.57618L16.0251 4.25684C17.0381 3.80616 17.8433 2.9734 18.2751 1.93067L18.529 1.31934Z" fill="#7C86FF"/>
</svg>
