<svg width="20" height="20" viewBox="0 0 20 20" fill="none" xmlns="http://www.w3.org/2000/svg">
<path d="M2.08331 5.8335C2.08331 7.90456 3.76225 9.5835 5.83331 9.5835C7.90438 9.5835 9.58331 7.90456 9.58331 5.8335C9.58331 3.76243 7.90438 2.0835 5.83331 2.0835C3.76225 2.0835 2.08331 3.76243 2.08331 5.8335ZM2.08331 14.1668C2.08331 16.2379 3.76225 17.9168 5.83331 17.9168C7.90438 17.9168 9.58331 16.2379 9.58331 14.1668C9.58331 12.0957 7.90438 10.4168 5.83331 10.4168C3.76225 10.4168 2.08331 12.0957 2.08331 14.1668ZM10.4166 14.1668C10.4166 16.2379 12.0956 17.9168 14.1666 17.9168C16.2377 17.9168 17.9166 16.2379 17.9166 14.1668C17.9166 12.0957 16.2377 10.4168 14.1666 10.4168C12.0956 10.4168 10.4166 12.0957 10.4166 14.1668ZM7.91665 5.8335C7.91665 6.98409 6.9839 7.91683 5.83331 7.91683C4.68272 7.91683 3.74998 6.98409 3.74998 5.8335C3.74998 4.68291 4.68272 3.75016 5.83331 3.75016C6.9839 3.75016 7.91665 4.68291 7.91665 5.8335ZM7.91665 14.1668C7.91665 15.3174 6.9839 16.2502 5.83331 16.2502C4.68272 16.2502 3.74998 15.3174 3.74998 14.1668C3.74998 13.0162 4.68272 12.0835 5.83331 12.0835C6.9839 12.0835 7.91665 13.0162 7.91665 14.1668ZM16.25 14.1668C16.25 15.3174 15.3172 16.2502 14.1666 16.2502C13.0161 16.2502 12.0833 15.3174 12.0833 14.1668C12.0833 13.0162 13.0161 12.0835 14.1666 12.0835C15.3172 12.0835 16.25 13.0162 16.25 14.1668ZM14.6043 9.296L14.8355 8.76567C15.2475 7.82015 15.9896 7.06732 16.9156 6.65548L17.6278 6.33876C18.0129 6.1675 18.0129 5.60716 17.6278 5.43591L16.9556 5.13688C16.0056 4.71444 15.2501 3.93376 14.8452 2.9561L14.6079 2.38304C14.4424 1.98365 13.8908 1.98365 13.7254 2.38304L13.488 2.9561C13.0831 3.93376 12.3276 4.71444 11.3778 5.13688L10.7055 5.43591C10.3204 5.60716 10.3204 6.1675 10.7055 6.33876L11.4176 6.65548C12.3436 7.06732 13.0857 7.82015 13.4978 8.76567L13.729 9.296C13.8981 9.68425 14.4351 9.68425 14.6043 9.296Z" fill="#9F9FA9"/>
</svg>
