<svg width="24" height="24" viewBox="0 0 24 24" fill="none" xmlns="http://www.w3.org/2000/svg">
<path d="M4 19H6.15039V21H3C2.44772 21 2 20.5523 2 20V17.3496H4V19ZM11.1504 21H7.84961V19H11.1504V21ZM16.1504 21H12.8496V19H16.1504V21ZM22 20C22 20.5523 21.5523 21 21 21H17.8496V19H20V17.3496H22V20ZM4 15.6504H2V12.3496H4V15.6504ZM22 15.6504H20V12.3496H22V15.6504ZM4 10.6504H2V7.34961H4V10.6504ZM22 10.6504H20V7.34961H22V10.6504ZM6.15039 5H4V5.65039H2V4C2 3.44772 2.44772 3 3 3H6.15039V5ZM21 3C21.5523 3 22 3.44772 22 4V5.65039H20V5H17.8496V3H21ZM11.1504 5H7.84961V3H11.1504V5ZM16.1504 5H12.8496V3H16.1504V5Z" fill="#27272A"/>
</svg>
