<svg width="20" height="20" viewBox="0 0 20 20" fill="none" xmlns="http://www.w3.org/2000/svg">
<path d="M9.99998 0.833496L17.9166 5.41683V14.5835L9.99998 19.1668L2.08331 14.5835V5.41683L9.99998 0.833496ZM9.99998 2.75933L3.74998 6.37775V13.6226L9.99998 17.241L16.25 13.6226V6.37775L9.99998 2.75933ZM9.99998 13.3335C8.15903 13.3335 6.66665 11.8411 6.66665 10.0002C6.66665 8.15921 8.15903 6.66683 9.99998 6.66683C11.8409 6.66683 13.3333 8.15921 13.3333 10.0002C13.3333 11.8411 11.8409 13.3335 9.99998 13.3335ZM9.99998 11.6668C10.9205 11.6668 11.6666 10.9207 11.6666 10.0002C11.6666 9.07966 10.9205 8.3335 9.99998 8.3335C9.07948 8.3335 8.33331 9.07966 8.33331 10.0002C8.33331 10.9207 9.07948 11.6668 9.99998 11.6668Z" fill="#27272A"/>
</svg>
