<svg width="20" height="20" viewBox="0 0 20 20" fill="none" xmlns="http://www.w3.org/2000/svg">
<path d="M10.9333 14.1857L7.43425 12.277C6.82596 12.9271 5.96035 13.3333 4.99984 13.3333C3.15889 13.3333 1.6665 11.8409 1.6665 9.99999C1.6665 8.15904 3.15889 6.66666 4.99984 6.66666C5.9603 6.66666 6.82588 7.07287 7.43415 7.72287L10.9333 5.81426C10.8679 5.55366 10.8332 5.28088 10.8332 4.99999C10.8332 3.15904 12.3256 1.66666 14.1665 1.66666C16.0074 1.66666 17.4998 3.15904 17.4998 4.99999C17.4998 6.84094 16.0074 8.33332 14.1665 8.33332C13.206 8.33332 12.3404 7.92708 11.7321 7.27704L8.23298 9.18566C8.29842 9.44624 8.33317 9.71907 8.33317 9.99999C8.33317 10.2809 8.29843 10.5537 8.23301 10.8142L11.7322 12.7229C12.3404 12.0729 13.206 11.6667 14.1665 11.6667C16.0074 11.6667 17.4998 13.1591 17.4998 15C17.4998 16.8409 16.0074 18.3333 14.1665 18.3333C12.3256 18.3333 10.8332 16.8409 10.8332 15C10.8332 14.7191 10.8679 14.4462 10.9333 14.1857ZM4.99984 11.6667C5.92031 11.6667 6.6665 10.9205 6.6665 9.99999C6.6665 9.07949 5.92031 8.33332 4.99984 8.33332C4.07936 8.33332 3.33317 9.07949 3.33317 9.99999C3.33317 10.9205 4.07936 11.6667 4.99984 11.6667ZM14.1665 6.66666C15.087 6.66666 15.8332 5.92046 15.8332 4.99999C15.8332 4.07951 15.087 3.33332 14.1665 3.33332C13.246 3.33332 12.4998 4.07951 12.4998 4.99999C12.4998 5.92046 13.246 6.66666 14.1665 6.66666ZM14.1665 16.6667C15.087 16.6667 15.8332 15.9205 15.8332 15C15.8332 14.0795 15.087 13.3333 14.1665 13.3333C13.246 13.3333 12.4998 14.0795 12.4998 15C12.4998 15.9205 13.246 16.6667 14.1665 16.6667Z" fill="black"/>
</svg>
