<svg width="21" height="21" viewBox="0 0 21 21" fill="none" xmlns="http://www.w3.org/2000/svg">
<path d="M1.02512 2.5254C2.39197 1.15872 4.60756 1.15861 5.97434 2.5254L6.14622 2.6963C6.34149 2.89145 6.65802 2.89152 6.85325 2.6963L7.02512 2.5254C8.30771 1.24294 10.3371 1.16412 11.7126 2.28809L10.447 3.83594C9.85871 3.35525 8.98831 3.39054 8.43921 3.93946L8.26731 4.11133C7.29111 5.08721 5.7084 5.08713 4.73216 4.11133L4.56028 3.93946C3.97455 3.35373 3.02499 3.35383 2.43919 3.93946C1.8534 4.52525 1.8534 5.47477 2.43919 6.06055L2.61106 6.23243C3.58681 7.20862 3.58678 8.79137 2.61106 9.7676L2.43919 9.9395C1.8534 10.5252 1.8534 11.4748 2.43919 12.0606L2.61106 12.2324C3.58681 13.2086 3.58678 14.7914 2.61106 15.7676L2.43919 15.9395C1.8534 16.5252 1.8534 17.4748 2.43919 18.0606C3.02498 18.6462 3.97453 18.6463 4.56028 18.0606L4.73216 17.8887C5.7084 16.9129 7.29113 16.9128 8.26731 17.8887L8.43921 18.0606C9.02501 18.6462 9.97451 18.6463 10.5603 18.0606L10.7321 17.8887C11.7084 16.9129 13.2911 16.9128 14.2673 17.8887L14.4392 18.0606C15.025 18.6462 15.9745 18.6463 16.5603 18.0606C17.1459 17.4748 17.1459 16.5252 16.5603 15.9395L16.3884 15.7676C15.4125 14.7914 15.4125 13.2087 16.3884 12.2324L16.5603 12.0606C17.1092 11.5115 17.1444 10.641 16.6638 10.0527L18.2116 8.78712C19.3355 10.1626 19.2568 12.192 17.9743 13.4746L17.8034 13.6465C17.6082 13.8418 17.6082 14.1583 17.8034 14.3535L17.9743 14.5254C19.341 15.8922 19.341 18.1078 17.9743 19.4746C16.6075 20.8414 14.392 20.8413 13.0251 19.4746L12.8532 19.3037C12.658 19.1085 12.3415 19.1086 12.1462 19.3037L11.9743 19.4746C10.6075 20.8414 8.39201 20.8413 7.02512 19.4746L6.85325 19.3037C6.65804 19.1085 6.34149 19.1086 6.14622 19.3037L5.97434 19.4746C4.60754 20.8414 2.39197 20.8413 1.02512 19.4746C-0.341707 18.1078 -0.341707 15.8922 1.02512 14.5254L1.19602 14.3535C1.39109 14.1583 1.39112 13.8417 1.19602 13.6465L1.02512 13.4746C-0.341707 12.1078 -0.341707 9.8922 1.02512 8.5254L1.19602 8.35352C1.39109 8.15828 1.39112 7.84171 1.19602 7.64649L1.02512 7.47462C-0.341707 6.10778 -0.341707 3.89223 1.02512 2.5254ZM11.9997 6.50001C13.1042 6.50015 13.9997 7.39555 13.9997 8.50001V13.5C13.9997 14.6045 13.1042 15.4999 11.9997 15.5H6.99973C5.89516 15.5 4.99973 14.6046 4.99973 13.5V8.50001C4.99976 7.39546 5.89518 6.50001 6.99973 6.50001H11.9997ZM6.99973 13.5H11.9997V8.50001H6.99973V13.5ZM16.029 0.319341C16.2057 -0.106379 16.794 -0.106515 16.9704 0.319341L17.2234 0.930671C17.6553 1.97354 18.4612 2.8062 19.4743 3.25684L20.1911 3.57618C20.6019 3.75887 20.6019 4.35638 20.1911 4.53907L19.4314 4.87696C18.4437 5.3163 17.6521 6.11944 17.2126 7.12794L16.9665 7.69337C16.7861 8.1075 16.2134 8.1075 16.0329 7.69337L15.7859 7.12794C15.3463 6.11943 14.5548 5.31625 13.5671 4.87696L12.8073 4.53907C12.3969 4.35629 12.3968 3.7589 12.8073 3.57618L13.5251 3.25684C14.5381 2.80616 15.3433 1.9734 15.7751 0.930671L16.029 0.319341Z" fill="#27272A"/>
</svg>
