<svg width="20" height="20" viewBox="0 0 20 20" fill="none" xmlns="http://www.w3.org/2000/svg">
<path fill-rule="evenodd" clip-rule="evenodd" d="M7.06236 2.938C5.92338 1.79901 4.07705 1.7991 2.93801 2.938C1.79898 4.07702 1.79898 5.92331 2.93801 7.06235L3.08043 7.20557C3.24301 7.36826 3.24298 7.63206 3.08043 7.79476L2.93801 7.938C1.79898 9.077 1.79898 10.9233 2.93801 12.0623L3.08043 12.2056C3.24301 12.3682 3.24298 12.6321 3.08043 12.7947L2.93801 12.938C1.79898 14.077 1.79898 15.9233 2.93801 17.0623C4.07705 18.2012 5.92336 18.2013 7.06236 17.0623L7.20559 16.9199C7.36832 16.7573 7.63211 16.7572 7.79478 16.9199L7.93801 17.0623C9.07708 18.2012 10.9233 18.2013 12.0623 17.0623L12.2056 16.9199C12.3683 16.7573 12.6321 16.7572 12.7948 16.9199L12.938 17.0623C14.0771 18.2012 15.9233 18.2013 17.0623 17.0623C18.2012 15.9233 18.2012 14.077 17.0623 12.938L16.9199 12.7947C16.7572 12.6321 16.7572 12.3683 16.9199 12.2056L17.0623 12.0623C18.1311 10.9935 18.1967 9.30233 17.2601 8.1561L15.9703 9.21075C16.3708 9.701 16.3414 10.4264 15.884 10.884L15.7408 11.0272C14.9275 11.8407 14.9275 13.1597 15.7408 13.9732L15.884 14.1164C16.372 14.6045 16.372 15.3958 15.884 15.884C15.3958 16.3721 14.6046 16.372 14.1164 15.884L13.9732 15.7407C13.1597 14.9275 11.8408 14.9276 11.0272 15.7407L10.884 15.884C10.3958 16.3721 9.60458 16.372 9.11642 15.884L8.97317 15.7407C8.15968 14.9275 6.84074 14.9276 6.02721 15.7407L5.88398 15.884C5.39585 16.3721 4.60456 16.372 4.1164 15.884C3.62824 15.3958 3.62824 14.6045 4.1164 14.1164L4.25963 13.9732C5.07273 13.1597 5.07275 11.8407 4.25963 11.0272L4.1164 10.884C3.62824 10.3958 3.62824 9.6045 4.1164 9.11641L4.25963 8.97316C5.07273 8.15964 5.07275 6.84068 4.25963 6.02719L4.1164 5.88396C3.62824 5.39581 3.62824 4.60454 4.1164 4.11638C4.60457 3.62835 5.39587 3.62827 5.88398 4.11638L6.02721 4.25961C6.84074 5.07277 8.15967 5.07284 8.97317 4.25961L9.11642 4.11638C9.574 3.65895 10.2993 3.62954 10.7896 4.03011L11.8443 2.74024C10.698 1.8036 9.00683 1.86928 7.93801 2.938L7.79478 3.08041C7.63209 3.2431 7.36832 3.24304 7.20559 3.08041L7.06236 2.938ZM16.2257 1.09961C16.0787 0.744734 15.5885 0.744847 15.4412 1.09961L15.2297 1.60906C14.8698 2.478 14.1988 3.17196 13.3547 3.54753L12.7565 3.81365C12.4144 3.96591 12.4145 4.46374 12.7565 4.61606L13.3897 4.89763C14.2128 5.2637 14.8723 5.93302 15.2387 6.77345L15.4445 7.24464C15.5949 7.58975 16.0722 7.58975 16.2225 7.24464L16.4276 6.77345C16.7938 5.93303 17.4535 5.26375 18.2766 4.89763L18.9097 4.61606C19.252 4.46381 19.252 3.96589 18.9097 3.81365L18.3123 3.54753C17.4681 3.172 16.7965 2.47811 16.4366 1.60906L16.2257 1.09961Z" fill="#9F9FA9"/>
<path d="M12.5 9.7533L10 7.5L7.5 9.7533L8.33334 10.5044L9.41075 9.53267V12.5H10.5893V9.53374L11.6667 10.5044L12.5 9.7533Z" fill="#9F9FA9"/>
</svg>
