<svg width="20" height="20" viewBox="0 0 20 20" fill="none" xmlns="http://www.w3.org/2000/svg">
<path d="M5.87525 11.7679L4.10748 13.5357L6.4645 15.8927L15.8926 6.46461L13.5356 4.10758L11.7678 5.87535L12.9463 7.05386L11.7678 8.23237L10.5893 7.05386L9.41081 8.23237L10.5893 9.41088L9.41081 10.5894L8.23227 9.41088L7.05376 10.5894L8.23227 11.7679L7.05376 12.9464L5.87525 11.7679ZM14.1248 2.33981L17.6604 5.87535C17.9858 6.20079 17.9858 6.72842 17.6604 7.05386L7.05376 17.6605C6.72832 17.9859 6.20069 17.9859 5.87525 17.6605L2.33971 14.125C2.01428 13.7995 2.01428 13.2719 2.33971 12.9464L12.9463 2.33981C13.2717 2.01438 13.7994 2.01438 14.1248 2.33981ZM11.7678 15.303L12.9463 14.1245L14.8151 15.9933H15.9936V14.8148L14.1248 12.946L15.3033 11.7675L17.4997 13.9639V17.5H13.9648L11.7678 15.303ZM4.69662 8.23185L2.3396 5.87482C2.01416 5.54939 2.01416 5.02175 2.3396 4.69631L4.69662 2.33929C5.02205 2.01386 5.5497 2.01386 5.87513 2.33929L8.23215 4.69631L7.05365 5.87482L5.28588 4.10706L4.10736 5.28557L5.87513 7.05334L4.69662 8.23185Z" fill="#9F9FA9"/>
</svg>
